<?xml version="1.0" encoding="UTF-8"?>
<!DOCTYPE svg PUBLIC "-//W3C//DTD SVG 1.1//EN" "http://www.w3.org/Graphics/SVG/1.1/DTD/svg11.dtd">
<svg version="1.1" xmlns="http://www.w3.org/2000/svg" xmlns:xlink="http://www.w3.org/1999/xlink" x="0" y="0" width="1280" height="640" viewBox="0, 0, 1280, 640">
  <g id="Background">
    <rect x="0" y="0" width="1280" height="640" fill="#FFFFFF"/>
  </g>
  <g id="Ebene_1"/>
  <g id="Ebene_1">
    <g>
      <path d="M52.5,39.5 L1233.5,39.5 C1240.127,39.5 1245.5,44.873 1245.5,51.5 L1245.5,589.5 C1245.5,596.127 1240.127,601.5 1233.5,601.5 L52.5,601.5 C45.873,601.5 40.5,596.127 40.5,589.5 L40.5,51.5 C40.5,44.873 45.873,39.5 52.5,39.5 z" fill="#FFCEAA" fill-opacity="0.5"/>
      <path d="M52.5,39.5 L1233.5,39.5 C1240.127,39.5 1245.5,44.873 1245.5,51.5 L1245.5,589.5 C1245.5,596.127 1240.127,601.5 1233.5,601.5 L52.5,601.5 C45.873,601.5 40.5,596.127 40.5,589.5 L40.5,51.5 C40.5,44.873 45.873,39.5 52.5,39.5 z" fill-opacity="0" stroke="#FFB680" stroke-width="7"/>
    </g>
    <g>
      <path d="M91.747,74.5 L561.253,74.5 C568.293,74.5 574,80.336 574,87.535 L574,552.465 C574,559.664 568.293,565.5 561.253,565.5 L91.747,565.5 C84.707,565.5 79,559.664 79,552.465 L79,87.535 C79,80.336 84.707,74.5 91.747,74.5 z" fill="#FFB680"/>
      <g id="TcLog">
        <path d="M86.5,80 L566.5,80 L566.5,560 L86.5,560 z" fill="#FFB680" id="Background"/>
        <g id="Ebene_1">
          <path d="M156.22,149.16 L477.68,149.16" fill-opacity="0" stroke="#000000" stroke-width="30" stroke-linecap="round" stroke-linejoin="bevel"/>
          <path d="M220.82,149.16 L221.56,339.66" fill-opacity="0" stroke="#000000" stroke-width="30" stroke-linecap="round" stroke-linejoin="bevel"/>
          <g>
            <path d="M171.54,210.32 L171.54,470.3" fill-opacity="0" stroke="#000000" stroke-width="30" stroke-linecap="round"/>
            <path d="M171.54,470.3 L271.04,470.3" fill-opacity="0" stroke="#000000" stroke-width="30" stroke-linecap="round"/>
          </g>
          <path d="M351.62,470.26 C329.42,470.18 311.54,446.68 311.66,417.8 C311.78,388.9 329.88,365.58 352.08,365.66 C374.26,365.76 392.16,389.26 392.04,418.14 C391.9,447.02 373.82,470.36 351.62,470.26 z" fill-opacity="0" stroke="#000000" stroke-width="20"/>
          <path d="M359.96,235.92 L359.96,235.92" fill-opacity="0" stroke="#000000" stroke-width="20"/>
          <g>
            <path d="M265.72,278.22 C267.96,243.8 295.42,217.54 327.02,219.6" fill-opacity="0" stroke="#000000" stroke-width="20" stroke-linecap="round"/>
            <path d="M265.94,275.18 C264.86,309.2 290.98,338.06 324.3,339.66" fill-opacity="0" stroke="#000000" stroke-width="20" stroke-linecap="round"/>
          </g>
          <g>
            <path d="M476.54,442.06 C458.76,442.06 444.36,424.96 444.36,403.86 C444.36,382.76 458.76,365.66 476.54,365.66 C494.32,365.66 508.72,382.76 508.72,403.86 C508.72,424.96 494.32,442.06 476.54,442.06 z" fill-opacity="0" stroke="#000000" stroke-width="20"/>
            <path d="M508.72,365.66 L508.72,467.34" fill-opacity="0" stroke="#000000" stroke-width="20" stroke-linecap="round" stroke-linejoin="round"/>
            <path d="M508.72,467.34 C508.7,488.28 442.98,505.16 361.94,505.06" fill-opacity="0" stroke="#000000" stroke-width="20" stroke-linecap="round" stroke-linejoin="bevel"/>
          </g>
        </g>
      </g>
    </g>
    <text transform="matrix(1, 0, 0, 1, 917, 320)">
      <tspan x="-130.497" y="-127" font-family="ChalkboardSE-Bold" font-size="100" fill="#000000">TcLog</tspan>
      <tspan x="-207.58" y="39" font-family="ChalkboardSE-Regular" font-size="60" fill="#000000">Flexible logging </tspan>
      <tspan x="-220.707" y="125" font-family="ChalkboardSE-Regular" font-size="60" fill="#000000">functionality for </tspan>
      <tspan x="-149.337" y="211" font-family="ChalkboardSE-Regular" font-size="60" fill="#000000">TwinCAT 3.</tspan>
    </text>
  </g>
</svg>
